<svg xmlns="http://www.w3.org/2000/svg" viewBox="0 0 512 512" role="img" aria-labelledby="title">
  <title id="title">Poznávačka rostlin</title>
  <rect width="512" height="512" rx="112" fill="#2f7d4f"/>
  <circle cx="256" cy="256" r="172" fill="#f7f5ef"/>
  <path fill="#2f7d4f" d="M271 367c-8 8-21 8-29 0-6-6-8-14-5-21 10-30 10-63-1-94-11-31-31-57-58-74-7-4-10-13-8-21 3-10 13-16 23-14 45 9 82 35 106 72 24 37 31 82 20 126-1 3-2 6-4 9l-44 17Z"/>
  <path fill="#7dbb76" d="M330 152c-45 5-82 28-106 64 44 14 93 2 127-32 14-14 25-31 33-50-18 8-36 14-54 18Z"/>
  <path fill="#1f673f" d="M207 181c-34 16-60 43-75 76 35 4 70-8 96-34 11-11 20-24 27-39-16-4-32-5-48-3Z"/>
  <path fill="#2f7d4f" d="M267 373c-10 0-18-8-18-18V139c0-10 8-18 18-18s18 8 18 18v216c0 10-8 18-18 18Z"/>
</svg>
